<svg width="22" height="22" viewBox="0 0 22 22" fill="none" xmlns="http://www.w3.org/2000/svg">
<path d="M20.2262 8.46399C20.1627 8.26368 20.0406 8.08705 19.8755 7.95696C19.7105 7.82688 19.5102 7.74934 19.3006 7.73438L14.0181 7.30469L11.9831 2.37789C11.9029 2.18304 11.7667 2.01639 11.5916 1.89912C11.4166 1.78185 11.2106 1.71924 10.9999 1.71924C10.7892 1.71924 10.5833 1.78185 10.4083 1.89912C10.2332 2.01639 10.097 2.18304 10.0168 2.37789L7.98182 7.30469L2.69924 7.73438C2.48931 7.7522 2.28932 7.83161 2.12434 7.96264C1.95936 8.09368 1.83674 8.2705 1.77186 8.47094C1.70697 8.67139 1.7027 8.88653 1.7596 9.08938C1.81649 9.29224 1.93201 9.47378 2.09166 9.61125L6.11784 13.084L4.88721 18.2738C4.83567 18.4789 4.84662 18.6948 4.91865 18.8937C4.99068 19.0926 5.1205 19.2654 5.29146 19.39C5.46242 19.5146 5.66671 19.5853 5.87811 19.593C6.08952 19.6006 6.29838 19.5449 6.47791 19.433L10.9999 16.6521L15.522 19.433C15.6996 19.5453 15.907 19.6011 16.117 19.5933C16.327 19.5855 16.5297 19.5143 16.6985 19.3892C16.872 19.2664 17.0044 19.094 17.0783 18.8947C17.1522 18.6953 17.1642 18.4783 17.1127 18.272L15.8821 13.0797L19.9082 9.60695C20.0696 9.47019 20.1862 9.28812 20.2429 9.08433C20.2995 8.88055 20.2937 8.66443 20.2262 8.46399ZM19.4588 9.08789L15.2753 12.6973C15.2277 12.7384 15.1922 12.7917 15.1728 12.8516C15.1534 12.9115 15.1509 12.9755 15.1653 13.0367L16.4432 18.4327C16.462 18.5065 16.4579 18.5842 16.4315 18.6555C16.4051 18.7269 16.3576 18.7886 16.2954 18.8323C16.2362 18.8765 16.165 18.9017 16.0911 18.9044C16.0173 18.9072 15.9444 18.8874 15.8821 18.8478L11.1804 15.956C11.1262 15.9226 11.0637 15.9048 10.9999 15.9048C10.9362 15.9048 10.8737 15.9226 10.8195 15.956L6.11784 18.8478C6.05549 18.8874 5.98257 18.9072 5.90875 18.9044C5.83493 18.9017 5.76369 18.8765 5.70448 18.8323C5.64226 18.7886 5.59481 18.7269 5.56842 18.6555C5.54202 18.5842 5.53792 18.5065 5.55666 18.4327L6.83456 13.0367C6.84904 12.9755 6.84645 12.9115 6.82705 12.8516C6.80765 12.7917 6.7722 12.7384 6.72456 12.6973L2.54112 9.08789C2.48332 9.03917 2.44158 8.97414 2.42134 8.90131C2.4011 8.82848 2.40331 8.75124 2.42768 8.67969C2.45009 8.60883 2.4933 8.54634 2.55169 8.50037C2.61009 8.45439 2.68096 8.42704 2.7551 8.42188L8.24995 7.97414C8.31315 7.96912 8.37373 7.94671 8.425 7.9094C8.47626 7.87209 8.5162 7.82133 8.54041 7.76274L10.6562 2.64086C10.6839 2.57143 10.7318 2.51191 10.7937 2.46997C10.8556 2.42804 10.9286 2.40563 11.0034 2.40563C11.0781 2.40563 11.1512 2.42804 11.2131 2.46997C11.275 2.51191 11.3229 2.57143 11.3506 2.64086L13.4664 7.76274C13.49 7.82037 13.5289 7.87048 13.5789 7.90771C13.6288 7.94495 13.688 7.96791 13.7499 7.97414L19.2414 8.41672C19.3155 8.42188 19.3864 8.44923 19.4448 8.49521C19.5032 8.54119 19.5464 8.60367 19.5688 8.67453C19.5947 8.74644 19.598 8.82454 19.5784 8.8984C19.5587 8.97227 19.517 9.03837 19.4588 9.08789Z" fill="#252931" stroke="#252931" stroke-width="0.4"/>
</svg>
