<svg width="20" height="19" viewBox="0 0 20 19" fill="none" xmlns="http://www.w3.org/2000/svg">
<path d="M18.3282 7.93646L18.3292 7.93554C18.3565 7.9124 18.376 7.8815 18.3852 7.84697L18.5784 7.8984L18.3852 7.84697C18.3943 7.81245 18.3928 7.77594 18.3807 7.74232L18.378 7.73489L18.3781 7.73484C18.3678 7.70224 18.3479 7.6735 18.3211 7.65235C18.2942 7.63119 18.2616 7.61861 18.2275 7.61624L18.2253 7.61609L12.7339 7.1735L12.73 7.17318L12.73 7.17314C12.6319 7.16329 12.5384 7.12696 12.4594 7.06806C12.3805 7.00924 12.319 6.9301 12.2816 6.83909L18.3282 7.93646ZM18.3282 7.93646L14.1448 11.5458C14.0694 11.6108 14.0133 11.6953 13.9826 11.7899L14.1729 11.8516L13.9826 11.79C13.952 11.8846 13.9478 11.9859 13.9708 12.0828L13.9708 12.0828M18.3282 7.93646L13.9708 12.0828M13.9708 12.0828L15.2487 17.4788L15.2486 17.4788M13.9708 12.0828L15.2486 17.4788M15.2486 17.4788L15.2494 17.482M15.2486 17.4788L15.2494 17.482M15.2494 17.482C15.2582 17.5165 15.2563 17.5528 15.244 17.5861C15.2316 17.6195 15.2094 17.6483 15.1804 17.6688L15.1803 17.6687M15.2494 17.482L15.1803 17.6687M15.1803 17.6687L15.1759 17.672M15.1803 17.6687L15.1759 17.672M15.1759 17.672C15.1492 17.692 15.117 17.7033 15.0837 17.7046C15.0504 17.7058 15.0175 17.6969 14.9894 17.679L14.9869 17.6775M15.1759 17.672L14.9869 17.6775M14.9869 17.6775L10.2855 14.7858M14.9869 17.6775L10.2855 14.7858M10.2855 14.7858C10.1997 14.7329 10.1008 14.7048 10 14.7048C9.89917 14.7048 9.80034 14.7329 9.71453 14.7858L9.71475 14.7857L10.2855 14.7858ZM1.68308 6.53503L1.68237 6.53509C1.4332 6.55625 1.19583 6.6505 1.00001 6.80603C0.804189 6.96156 0.658647 7.17144 0.58163 7.40935C0.504614 7.64726 0.499553 7.90261 0.567081 8.14339C0.634608 8.38417 0.77172 8.59965 0.961221 8.76281L4.89525 12.1561L3.69329 17.225C3.69318 17.2255 3.69307 17.2259 3.69295 17.2264C3.63209 17.4698 3.64521 17.7259 3.73065 17.9618C3.81626 18.1982 3.97055 18.4036 4.17372 18.5517C4.37689 18.6997 4.61968 18.7837 4.87092 18.7928C5.122 18.8019 5.37008 18.7358 5.58335 18.603C5.58348 18.6029 5.58362 18.6029 5.58375 18.6028L10 15.8869L14.4152 18.6021C14.4156 18.6024 14.4159 18.6026 14.4163 18.6028C14.6278 18.7361 14.8746 18.8025 15.1245 18.7932C15.374 18.7839 15.615 18.6995 15.8158 18.5512C16.0214 18.4052 16.1782 18.2007 16.2659 17.9642C16.3537 17.7275 16.368 17.4697 16.3071 17.2247C16.307 17.2243 16.3069 17.2239 16.3068 17.2236L15.1047 12.1518L19.0376 8.75952C19.0378 8.75934 19.038 8.75915 19.0383 8.75897C19.2298 8.59636 19.3682 8.38004 19.4356 8.13794C19.5029 7.89615 19.4961 7.63978 19.4164 7.40187C19.3406 7.16408 19.1954 6.95441 18.9994 6.7999C18.8032 6.64524 18.5651 6.55295 18.316 6.53496C18.3156 6.53493 18.3153 6.53491 18.3149 6.53488L13.1563 6.11526L11.1681 1.30181C11.0729 1.07029 10.911 0.872299 10.703 0.732964C10.495 0.593629 10.2503 0.519238 10 0.519238C9.74966 0.519238 9.50497 0.593629 9.297 0.732964C9.08902 0.872299 8.92714 1.07029 8.83191 1.30181L6.84373 6.11526L1.68308 6.53503ZM10.1658 1.71722L12.2814 6.83873L7.26584 7.17351L7.25 6.97414L7.26624 7.17348L7.2661 7.17349C7.36598 7.16551 7.46172 7.13008 7.54274 7.07111C7.62383 7.01209 7.68702 6.9318 7.72531 6.83911L7.72532 6.83909L9.8411 1.71722L9.84111 1.71722L9.842 1.71501C9.85488 1.68272 9.87716 1.65505 9.90593 1.63555C9.93471 1.61605 9.96868 1.60563 10.0034 1.60563C10.0382 1.60563 10.0722 1.61605 10.1009 1.63555C10.1297 1.65505 10.152 1.68272 10.1649 1.71501L10.1649 1.71501L10.1658 1.71722ZM5.85524 11.5458L5.72461 11.6973L5.85526 11.5458L5.85524 11.5458Z" fill="#252931" stroke="#252931" stroke-width="0.4"/>
</svg>
